<mxfile host="app.diagrams.net" agent="Mozilla/5.0 (Windows NT 10.0; Win64; x64; rv:134.0) Gecko/20100101 Firefox/134.0" version="26.0.8">
  <diagram name="wiederholschleife" id="qyElVAhv6xl956diiyx-">
    <mxGraphModel dx="2568" dy="1216" grid="0" gridSize="10" guides="1" tooltips="1" connect="1" arrows="1" fold="1" page="0" pageScale="1" pageWidth="827" pageHeight="1169" math="0" shadow="0">
      <root>
        <mxCell id="0" />
        <mxCell id="1" parent="0" />
        <mxCell id="ws1atY8pSsx9bq80kWCU-1" value="" style="edgeStyle=none;curved=1;rounded=0;orthogonalLoop=1;jettySize=auto;html=1;fontSize=12;startSize=8;endSize=8;entryX=0.5;entryY=0;entryDx=0;entryDy=0;" parent="1" source="ws1atY8pSsx9bq80kWCU-2" target="ws1atY8pSsx9bq80kWCU-10" edge="1">
          <mxGeometry relative="1" as="geometry">
            <mxPoint x="-496.5999999999999" y="-10" as="targetPoint" />
          </mxGeometry>
        </mxCell>
        <mxCell id="ws1atY8pSsx9bq80kWCU-2" value="" style="ellipse;whiteSpace=wrap;html=1;aspect=fixed;fillColor=#dae8fc;strokeColor=#6c8ebf;" parent="1" vertex="1">
          <mxGeometry x="-536" y="-120" width="80" height="80" as="geometry" />
        </mxCell>
        <mxCell id="ws1atY8pSsx9bq80kWCU-6" value="" style="whiteSpace=wrap;html=1;rounded=0;fillColor=#ffe6cc;strokeColor=#d79b00;" parent="1" vertex="1">
          <mxGeometry x="-364" y="62" width="120" height="60" as="geometry" />
        </mxCell>
        <mxCell id="ws1atY8pSsx9bq80kWCU-9" value="" style="ellipse;whiteSpace=wrap;html=1;rounded=0;fillColor=#dae8fc;strokeColor=#6c8ebf;" parent="1" vertex="1">
          <mxGeometry x="-533" y="168" width="80" height="80" as="geometry" />
        </mxCell>
        <mxCell id="ws1atY8pSsx9bq80kWCU-11" value="" style="edgeStyle=none;curved=1;rounded=0;orthogonalLoop=1;jettySize=auto;html=1;fontSize=12;startSize=8;endSize=8;" parent="1" source="ws1atY8pSsx9bq80kWCU-10" target="ws1atY8pSsx9bq80kWCU-6" edge="1">
          <mxGeometry relative="1" as="geometry" />
        </mxCell>
        <mxCell id="ws1atY8pSsx9bq80kWCU-14" value="" style="edgeStyle=none;curved=1;rounded=0;orthogonalLoop=1;jettySize=auto;html=1;fontSize=12;startSize=8;endSize=8;" parent="1" source="ws1atY8pSsx9bq80kWCU-10" target="ws1atY8pSsx9bq80kWCU-9" edge="1">
          <mxGeometry relative="1" as="geometry" />
        </mxCell>
        <mxCell id="ws1atY8pSsx9bq80kWCU-10" value="" style="rhombus;whiteSpace=wrap;html=1;fillColor=#d5e8d4;strokeColor=#82b366;" parent="1" vertex="1">
          <mxGeometry x="-544.5" y="43" width="103" height="93" as="geometry" />
        </mxCell>
        <mxCell id="ws1atY8pSsx9bq80kWCU-13" value="" style="endArrow=classic;html=1;rounded=0;fontSize=12;startSize=8;endSize=8;curved=0;exitX=0.5;exitY=0;exitDx=0;exitDy=0;" parent="1" source="ws1atY8pSsx9bq80kWCU-6" edge="1">
          <mxGeometry width="50" height="50" relative="1" as="geometry">
            <mxPoint x="-352" y="34" as="sourcePoint" />
            <mxPoint x="-495" y="1" as="targetPoint" />
            <Array as="points">
              <mxPoint x="-305" y="-1" />
            </Array>
          </mxGeometry>
        </mxCell>
        <mxCell id="ws1atY8pSsx9bq80kWCU-15" value="ja" style="text;html=1;align=center;verticalAlign=middle;whiteSpace=wrap;rounded=0;fontSize=16;" parent="1" vertex="1">
          <mxGeometry x="-441.5" y="56" width="60" height="30" as="geometry" />
        </mxCell>
        <mxCell id="ws1atY8pSsx9bq80kWCU-16" value="nein" style="text;html=1;align=center;verticalAlign=middle;whiteSpace=wrap;rounded=0;fontSize=16;" parent="1" vertex="1">
          <mxGeometry x="-487" y="134" width="60" height="30" as="geometry" />
        </mxCell>
        <mxCell id="_8a9-MM2RIxdXdxktTIE-1" value="Falls Pfeile als gebogene Linien erscheinen, kann man sie in der rechten Toolbar auch wieder &quot;eckig&quot; einstellen" style="text;html=1;align=center;verticalAlign=middle;whiteSpace=wrap;rounded=0;fontSize=16;" parent="1" vertex="1">
          <mxGeometry x="-114" y="-48" width="248" height="66" as="geometry" />
        </mxCell>
        <mxCell id="M8ulNQL-Cr2LT55qG4kD-1" value="" style="shape=image;imageAspect=0;aspect=fixed;verticalLabelPosition=bottom;verticalAlign=top;image=data:image/png,iVBORw0KGgoAAAANSUhEUgAAAMAAAADACAYAAABS3GwHAAAjMHpUWHRSYXcgcHJvZmlsZSB0eXBlIGV4aWYAAHjapZtrllynkoX/M4oeAhA8h8NzrZ5BD7+/TZZkS5Z9r22VrSpVnjwHiIj9CEh3/u9/r/sf/rRm0aVcW+mleP6knnoc/ND85894fwef3t/vz/p6iX//8Hv3/YXIr4zv9vlnK1/Xf/t9+H6Dz7fBT/l3N2pfdwrzxxd6+rp/++lGXw8yjSjyw/66Uf+6kcXPC+HrBuMzLV96q7+fwjyf7/vbTNrnf6e/+n6X+tC/RvPTv1Nl9XbmORbjsWCev83aZwCm/7OzwQ+Bv/lH1E/6OVvlb7Nva8KC/Gqdvv/hge5qqOmXF/0Qle8/hV//3v0crRS/LrGfFrl8//7L37uQfx2Vt/S/e3JqXz/FH3/Pqn2N6KfV1//37nbfnJnFSIWlLl+T+r5q+oHrJo/Qo5tjaMVX/s/cor6vzlcjqxepsEnlydcKPUTCdUMKO4xww3nfV1gMMcXjYuWHGFe098tmNfa4XiSTvsKN1bpto55svbAni9/HEt5ju1/uPa3x5B2a5svNAm/521/u777hXpVCCL59XyvGFaMWm2Eocvqby4hIuF+Lmt8Cf/v6+Y/iakQwa5VVIp2FnZ9bzBx+QwJ7gTYuzHz/1GCo++sGLBGPzgyGakiBqAXLoQRfY6whsJCNAA2GHi3FSQRCznEzyJjMCrFpUY/mLTW8S2OO/Nrxe8CMSGQrVFgjQoNgpZTJn5oaOTSy5ZRzLrnmlnsexUoquZRSi0BxVKvJ1VxLrbXVXkezllpupdXWWm+jx26AZu6l195672PwzMGdB+8eXDDGjNNmmtnNMutss8+xSJ+VVl5l1dVWX2PHbRv82GXX3Xbf44RDKp108imnnnb6GZdUu+ZuuvmWW2+7/Y7vUfsK6x++/kbUwlfU4ouULqzfo8Zva/12iyA4yYoZAYNFAhGvCgEJHRUz30JKUZFTzHyPVEWODDIrZjsoYkQwnRDzDd9i5+Inoorcv4qbq+mHuMV/Gjmn0P3NyP0xbr+K2h6PTu1FSFWoRfVG9Z3L82MbN7crwNHP4r3Pd/fzL/7B932PeWehrWJtrMvUAr9q9YY8bm9r3gZX3dbHOm0zjmm17ngY/gq5912zUaIt1T6iOyd73TvO09dJMTUyw1aHwVeta6dZA9EhZfa81d9RIutUuVdd/d7K8k2S8IJH7Wa7OeRrue21BQFU4chEjyfHfdMbQztz1FQMuXJYU4uFp4+1Z6bkD+EPNrPtMjepXWLsJQzCx8uZKw8ZAoMQoB3izCVczfikNHa5CsBcIxMhn9wmiW4Br8uxQtxOmW3d0DUGMm/r8l17YvjD93E8N7K6rBQL/UIwd865d3V1Mnd4v+/Qc+ws3GREPeWABBsDXn0/+v/03f23F/rcyNpZmycdoShm3hdRoaZi9je5M/wuMVsPu4cpUiMyu1KIkxgdCpdobm6RbWqazG5eQm+J1Y0USVFqzOlahjMrLFkO2JzCWCMlanGjtLqdFgeV20kSlvUakFO1jDnG1mNIG1QlIMTKrcUCr0kaIsaWwOSWbvxLv2UkGmWk/G5XsMnQQF4M4AEVFsMtp4xcZ+wu5uXrhKV9TTyTwd98xvnkVZ6tg6Q5chMSPO16wQqS4awzGoDUWaq705rdWbod4MmJMY2aRz/Ut2oGgDu1zHjLYIH8XnnGRd4cCvq0MgnuqTtdagzQOK4ksqDcE8nAzvjNQCY04zUAZFELoa58DzFjDRksC9TLL/LMfUu0dvwk7xejYTzLLwArH6sTCHwgQr6B8okV2quHbhQeCMX0Vz35MrXPXFcFQWfKhwTZ0/oI6ZAFdR3u+IEhBtvWn6KJ+8ULFNreIFwGeFmLCeB6ytEDmfAJv59tx3JLXFtoMoTK5ii/yCjnmqxgrDn02FhQMGTHSeDnifG2crQWsNKEKK4HuhfZF2cDOBpQ05cjYTMVnI5wOdoA2yfXkqMrtVZXJA6AXaJMRyy7eYY6T0WcLWp9+wsY9LzNZcqn39Qo4bBvhj8oYSuNX/QtJOv1MNjaDCrJKMOSVjkYgUhaWz6NmJBMw+1SBzCaKvFBbHbYl5xNlTWgQMo4G97pY44Y+L57y1n0Q4Iw66sJhoVxmS4BzFg2sk3mZVeCD5aW0RNFPUI8uRsYeFbGVwSq8aShMs3TYOS6qQiydONFgHhKMDaShHFTWMMK+L1b3SSxqjbWng9GZc4A3QkaDKeYKxjgF3VHHY3rCOEuZ2b4wUD2CjOPDY96knmBi+A00d1dUZsUNbQ8xm5B/wamyArmTc479DDvRUsv6vDa1ep0qAcNvRAEaawPsnG3cr6DHPcsj55T7+AAJOPCOERafBxXP77CIp5p+t0WdOHrnbHM0fgvpQuekEFFav6ysjahwRnatuXdBPHGRJ4WnmEL4unU0EE/kJMlr8ktkSAk3R4boQAUkPiEHLtiyr9xZ+o1OsZCZDRmJMCoff0n7I54khSIHnZ1AcIGzqKZERFG6RBW5G9q3U8gjMFdAw4KgRM5Qe8HoqR+t9kFxXeDvzMDC/tUcADXiT664t41WD7wZhOxtMMqnQqkKkvCuGfeh/ZjUXJaiRKbqiWoFBaAwaDqoajBsHtTcf6y1Ctsi0ey7xYVVQ7QjRkh6AxOK8zw+eLxksUMJlLmuRw3FhTJo31oxVNhvDBSmBPWTZABvoygSauyIrOQoxQoWszzJjRfzgQlICWKk+6zfRGOeSHyZrfJo8Q0Sk3yi5HpnReVS1yz6APiCVKJA4QYYBPJPYlaogRYWgg7B1aBYcPnuVRhfwvFekvIX/jB7iFpGCRDYLWaTY9cxe0qdVxS8VPiJANI4o0SmqwZwmR3ctMKBIzvR0hmW5AcIISMIY0A5LgPHBg9dbtRbDdM38GVZfMRHo4O3NrIORQUuEIUEctwDw+bDYcaUa8wW01HaXfS5aXjJiQN4QBrcSGHAEm86T4px7YJApphUxlQvFQeaU/Y6kFIF3TuDMxTUjel7SAvVDA4Ap9ChWkGW1hOsiXypkzwvSiSoCN1wKYYcxqGk8ARHHlhoBjE3I6aRYZfBj14K4ndboyIxhUq44dGj82KcDgALn6A9d88CEUD3ZKim0F5QYpbiMvDNOTe1/IFo4HSEZtfCTHk4qqeVOIGoF5dJHVHJ+JgMlBm4KSUXl6O0lqC5A4iw5lIcSpM7SOkvuFHyUFijM5TOLNvyS+KETxHPyvN+yb4rJI7qAjcN6aVlGUxT8OJcEGYiBJpF8o1HkoMVEdB4qRIwItRIpa8VUQJmyPYeXWZSJ8Eky6fiKwy1H6Yq0XRI+uB2UKplIW7KVvYATpIkfKqsRRkf3UjyOKQLE2ir+PQlP+1cI8wsJ4AcgS3NsyXrgD+jKSlKKKQMqzHSpjCdSgD5AjoD3xQhHNJ+oHFAa3Cb88kYTpOz0Jk3tw6DcC64IWmdFTG81DubbqMRCTVreIL1qLgzRsrKT1kFB1ewUfAuK02ZQ0WsX/hnoQSI9jwHIQIPDpU/a1/pueJfw+X0DTKDaMAaaq2YUyGBCgsEnWglvZwMkXf5DmIFGAagGsihiKLwqgJHkKmc4HKNIughpxPesQOgKDHei4OVZ32BOV2lAtqi/XIKisSDgoFWRG2GNMMy/t9NtPoGEFGwa2RMiWZjKw5rCS+EiEUUPaUMi4GdsVRd6QllU6Zhyyb3A3orQg/rmZISDskyaLOPGovZOc7TwvML+HqSse9NZxgGDFF1ClM3ZGQCJeJNc6gBFPDDTJlUHxxSx5YGg9yG2QLJFtLByF98Hmsw7qsOjqcYpkk2GXhKHZNFTUDHWyA3t8l8QxJU/52nBpCMZHFuDW4MsFZXTlpkMbBnaFChTq9ggrHltx2AaeDZ3VaQ5v5MTU9R0wZIg6jpiFd0cEKgkR+Il7gYwDtUE7nigDGXhOMAmvIXUitKVn8UGK5ge4FmCYjQIotqmNTMYWpTyCdyaLk0G24SbLy3pcNuwQmBP6Ioiue5MbmkPmgBIyED7tpXDRHC8SaXGetNpydZUZXLjvgcvFeB8qn7El/qACONUTYREQs3h5gxERi4OMCLgnuzfJZU+ZUTnVtCh21nuIOASuB2sHRIVH7E1qXMnOXOiA3+T1AhiWsA3uWGQGsMxOOA88ELMELgMSRsq3wA6AO1k2opbHc+a7oPDo3sbykmUF2clcN1Sc5hfmZPNuQC2h2lv5jmMjDTpAp8BQ7wAcZbgsOfT8PtoHqT0jrjBODYQ7oTFyQXJh+CGCo4zNBPtQzYpbMDhnnn4UWlEtb1REtCAonw0S4c5WlCPytLg6UsBasBAqy0qxmXs/PJ2Ioq4DS0/qmA0SgaqlIaQzxGViVgUDwb+PyqPWFdNjqkJBVE6pMDEhJl6kA3tWu+BPwA0bgnMNMUTppdQp9LVZaEvAA4ngkQE29k0OJT9RTEm+Km4faYqgBGUVD/jlAz0cyrCKYBusEmUxx4NF2Agu9cH0XIhOOIPCPoS8gjbx9wRictkxkm6JjpfclVo1lvqpumZWaBYoZWR7lA5HSwLSokOU22SJoBn8FOMiaAzaUyNrcyvjqGUl9EHEeVJJ4QDWAeLglGADQTGdGzPI5NaAzPfJPCjkJINC12d3g0TgBYgFJEBtAI2vTEIeAEDNhZqWSXGHzB7YwQ3ifh/kRAPKELNx2gBEplYm+oszgkat0RbZxGeCcQAjS7BDim3AAeVCQLBNuWC2oAkjDoqQl3E80sUwT9iE7suDrtfxRNRPagm7BcKROb9jFjdhAoFDmd2LEqElxfQN0fXPwqFJHnQ1MAs4HItAWjtK1CMKSWhyIbdwcozLojGEwSRbq4sE6yIpLTTjIjvncT3oB6CQhgrXPDWDgY6JH9jwDAfN6g9syro6nlBwIIKHn/TyiYCEiP/tcJfKDZdSNB9G9jFmVsC5XgnBmhGwC2iMLypPUZfk2t9aUcE7Lt+prxB9UOFkGzhHpjs6/DbDBMJ4jFwGmYjwPkO+rzIohNfWONkUnbg3s5UVwUrmQ62qMpSNGAjCU0QokyYAUkahjlBi1AQDoqQA/PUfwJ4RuySXAAZtv6sxAs3hgkOq+ToQhr8jeBMl45Eil9hElr62C4sEdYZ0xS5EZU2sdipl5+Y0dYl4JWxHrvBltAfoN3kzK4c6JuZf5FMxVaXX9Iwaqb8WMN8RmwSNQP4nmkUoSSjwr4Ximye8Cdh1mbllgVAgbRT9vF31VvFarFpBUWFHm3BATEu9TjYbuC+DHPc5A7IgmULVoxk0mkbPq3BLinBBTUDP1vDWGFFyX/2VFCc/efSJKoHM1YTLaZzSVT0C2LJZVYa+tTDSlCRPAvIkjKohP/BqWGbQgTw/UB1yxQLoNZgv5y0DJUnga64oHxlUhIkmbergWMkbcUHpkyx3Oi+L26Ng40J8gYXiQHhgcig5QZPV1dzxDgdnU+e/hkC7eEwUWXDoaiWju4hRU76+1oHCSgSwpcO+3/B/FnWVE8JZeBAd2QHLIzBAzCr4jkqd8m3vdztIRBLo5C6aGGGqNW6P5CT42eb59K3hhWTG0DOZhaY9BNy6yigTEEeAKXRFz+FmbWlKsjXUmc4gcxrHipos6bSd5Fg2LQc6ziCyUoXXbVIIjRsNMCQWE/weJySQJXBKAgJOyA7OPlTpPfuDDSu0KywKhQDYMkg1lLw7UjRdv4reoRlZSMn/Yxmoj1BSkjp6T3iU4ZBQKhnIJ6S1pkefvyFXG5iiqiEvA4aMCsB5q8ty0Kb8pSbOY4/JNTJW5V2pwk+XLU5r6++T2bQQWl43I1NMZnfqDEv4A9YbjeC8KtirgZOLJ6plGisx6ZXmL4irBwk2o1DgdmQuHIN7IMeDwoBjubPJSaOEplw4YYGa09xAhaXAdNz/CjBJGvjNy0eF25fV0QIq8I75sd5ETfi5QCIjVopqjmjregEHiuRcrkdXBHXJD8COqFvXheq17UwzqNEFWG7nbQiNFw1mShRepLFG1sTSVUZwwNVZqBywnX6Tzog3UCAER0cGhVZEAIaWH81AM1tMybU4JyoLOThqjR88Bv9gonoLe3E/6wfgnysMjeFhWr77WROOrZ520KFfuuAIzOascx5HOR1sz29emq4Tcy68l9XnKgqohQaZbnq7HzZGTko3FkJjAB6KftV2EXeVVWemUx0BHPN0Nr62IB8TpIEJIg3BFGpggdf6QUVREH+htVvQGqImbQo9+Lg8TAQBANPSN6tMGS8HCJgw7VAeOI9E9hKBckoKhsMlTgMJTJE0dIGq04gDwDkABTl1CJwyHjTJQgjvULhzF4CORKkDycYOQBJbjq1GXSKVYPKIcMRLQsvgrTQaIcMyMMie1GYM6lH+10bTL+fnlrxe9d3odiDtkX0Ods9KP+bq2T9DbQAzvbWRfuBjo2Idn8ggYSSFwjbdQcMgQF1geNDbOhGRBtKxzItHmn15GAgfhJ1R9uqAOMWkbgiP3NrUAFGIOiQEuFr8Gjl1GYMyRpCbFNnJuJ2iH8FD9rLS2AEmzVQACYrNwZmpHPnQVByZ5WvIi2N6JCoPCb9UWFXH0RcoTvCH5jrhD+yH4rTVQ4BWNia3NXK6+Bc9ebmsjB581EZgYWzIFo86EjEuITqG4ayhVbAJWaww8Ry4X141jKlSuKH2Q2QALSh7LtaD+iaANiL6KFqdOtGG6RD9ISfXyMVoUMyapJdzBAoeXVDO21ImNMiuI+QA5ZR+h06kVqdrowIQSdfREwanfE7Ks4B0JftG5g0jwZSGHdzgRMLKpc7mSrD1cfh4iL1Q3ghy0Z83U8c4eZldPWyx3KN4N2Y+jvlm4DnEsrrra/eL9c6NCYDVIFchidDZlDdEnBymLKJAUFXGx/vrx+c6goiUFpT9ELWJhKk5CrKkeB7gEKQFm+4IVOfS5pmndMuSMN0Y6IyKmj+Snw00idSAGrBCXyLyivQoSDqtaZJJZMBaI8r2ebGrCkEARNHX3QSkGquaKUzMHvLvye2rbLMgOT2tefWd1fSgEw8cPpDhrlcOpFY2Fi1aXhvXFigN9xcHmvncQLVnL4nuEEFoDQCJz0vth68ABQhOtjFUExvzy7wRdRJ0v7dwABI40JXWAD0xfamrxwvG4EKADWubeAJp22KsgCaxu2pbhDnFEMJm1lY64KLbbWNyKjr9IADVaBilVwH4Z7ybNFyljnLIa7tQjhU79g2kGHeGEBG7aoYX7E/oYYYK3KiCIJ2u32r9IgCMrp4Y9lAhUAelALtQgdkbCF7AOcsZIhRYo2iRGJs+UcmGyHJdiUB2muFdnos/kXm+Mg5Lz8n04skFuRuZeU75HRUslHG2I45D7miS7coUsMmKmPbOiFokf2gFB/SElC9b+Aju1g0dJNVBTOA7zbQ+DKFzt9SO+IQEWHn0FqCH/tFE2Q/TqiEgRgNGkA0oAFTVMjV7pcCdgJbmWfJ4c+F2YqUoOQxYtnj5LPDIuUc1WfD4MF9SjwdpNphYWt5mlEjUcMmywe4uoeB7EMA6yByuKmiZFj84Evm2W7FGnQLdXVz2p5whdq9lRCJcDJ8637a74OWYhQ4Xd/9NTCAT1p5d50aW3i6/Xs2KAfCH7wleP06L6hGhvNSBBcdva84S7cAlmGe3HEiWUWZpuYEJYhQnUD8wKdY/XumJTteEC6DONUiHLcesIAmCPEsPyyOJow10oR/K4MpgHpjE9fSJ3pRoB4xNxRI7zdJCMXCS9kJ3ap4aeLrAokudS0qhvFruBwLWqg7QKKh8bnRkEazKZAqpQJGRenQ0qKmF6rDBjbCVJy0SrbJZI0aV3IIqK8TjkrjMRdSDlMhA55BwCBZw6vF2VXshFSoCFvjAcJswMnkwRNecYqjZzMAk6sbYwxr2oPcwidfXv0WFhIUfBuV3RfHng9yqkSCLCfGAg5pfpOK0ALnysoJRpOltAxoM4OiJHqYB6xtjIbqCwqrGAlEZgbkgOUopyCdr+cfjazMTJwoOUe855NdvdujaVcGieF5fUC94p6EQDmFqRF/BAAfNkmBjBcYbdwA/6000NVogZ1QnWlH5NW4cXlzamek1SBKXeRqHFSXaAJur/U1vAd3XU7hpUFNI+wghCdZ6XT5CA0QGsuyj5AJF1VgX/saRL4dKIslt42lYzmM2NNH+PQ6Y+Ow+HOCLKxQ7BPNhg8hXNSqB0p6AsqhHwLi03sKqgFy6mti3XcLnh9Y9hTEbRD+PGtvajVgrm7gOD48HgQ0GMoKl9hvRoKC/5E1bL3SKxCrOoUR1gR8D56EhAU0vDJNwI4YG0t7JD5xJEHZiirO07YS/m8xYwW5B6ta2ONIpFx3kkuBD1vrye+4pvB6NyibrpeDgdj9NJD0nsDImT/MWBNvDzRdZqd/6Cgk3Ew+xhHVPfQbvVGGQZdgIVTWdaF4lO6QSk/UUCAoMOFYclg84M7akZzw8oDRwoOpL1Jg3QzrwNxdJAzwlekxG1YHQ97O21H1pclDSC/gwdaGoKH3IDmfN1lAyRs8ZvePcnuPcjsP0R+H7AxV/jXgRYcFNy2QA86C65UyGio26EDOiSmZElQjQctBmigdFZwAwjyLQdjquxKKs74M7kYIPTGpCpFlTw6hqtqd0e9GyYQF6gfNa5OH2FaQsgQlTHQfqU5Nd+5E3XSXCgHgFWhJGgyL/DHugHYLSLSgDqtVDOohfo2WtRUSWj8carHhm14s3Bqr15Yodcjtg6tD9JHskiAJ5SghMDjEM5Wb8UIXCjMUCNZxugV3XAkpLSzvEMktVoWyKJbp06o8lEq1oVXOR5QZ1TmbGoUlRhUvFX561guKWjJcGJsHGG6oFT6WT3ZWYZjFYnGXGH6cdxTJU1ggGVzZUwJIS7lXm54HH3TdGxoE0oos0pvGunMKlanvatMqGpd3wEQCTf8EPoBLg+VpbQJzV/+HkNhzoALpH0N2Zmgbs4ovaiDpb2kd95tEPk5H2UceS6L/FSxjtzada4Tbx2SqII6qTckwqhmvoIggBdHvH8Ijlk4UJChKnTlswPHO6bBZLqQziX5WTckJcyFuI/a5K+iGpUiV1WRicAno/c3LUDVcBb8yBwjKtrd/sFumwXMSULLagazoj5ASxgIHW+KUcs4ADL2lK/pSMr40w660S08CTyKTqnRKaM7eZ6P0PyICFrojPDxcdGQvsgIMJGxvLOt2Sl2bk42r1XeQfsdJArIdEGBFlef0oUUlCJKKRIzVMUlEEihTrV1nRSSJZ7K6ei9jpRVGQy9I80T12HvZj152RN4W1PJ/nfvv8Nx+1+b7n1OgW3olo6PzruvPKljIkW9ipi8OfSyflacJmPbchsQoDEoIR02oZ00/mXj8VDBZCDIUOPk4yCm6VPvzoLMtLQ7eYB/DY7woHOVBMPwQRqwox4t6HtQKVA0AcN0A+z6Dyvzbch3pUgkr7qnWjzBi3uwJuh8zrxq2MeZVTH9kh9ZtHjmzJoNBa+GWWtA1o6VNPQZUBqIll90f7aZy8PVVFhK9mhMyEOCPwZyI1OCBVKY/BwRO1NjrXBolXdtk0IE3KBOnM9shjY3eJ1cmmf+zbuCqbpRGjzmg4Hc18dYjjyIgUhgU5EZ9ZWMViAKgqpuos0oALlstFfI9hGpcAlW4dkdJYGGyX8gJerDjjZhdjRBeqeIdRBtvFMgaM2zkp3yv3NhVyTfMegaddDXfo01aU6ABMCFKkGALEaDT1ZXjthpa2uHnmEaWmyggVAxhSmo4/9fKgI+QX7Uses6Syj3HNABwwekoQwyJDISIPptzn1RRVM2ces46BqUFBRF3QeC6Msttfhauwjc60UT8Ze8pogmWjvJtiAaSceClFJ3qo1R8rlA8tBSfVpTZ0vYAWVeeQ0+KDj/f3okBGz3Ch0QJXyhLIh/hg1vsmAELAyQZFrtV+gZiRZfawlYIWq17trx+0AquNog/1TqYjR+Kcn4FAgRx9Z6TqaLeLmGa/p+fFN316W0mVE+cP9n2u4Ami5OhWHCohWP2dSi45hVTWQsC0QmTbsy0m345IpTp15N2qtZq9up3bhkFNoX2gVRNtqIchCsNAZsOY+oAD+mODiosFUnbniDdXzbp0aY9Uge5g03pyQ168laDpAQx6ozVh1Zmx8ZCTOOif11wqOIRbIKB6dF5luARgJu3jHwYyI+Sq8qo1PhCHWZFJ3phPD2kJ/XTXwp/x+FwVLjVp10DzY39Vl6fpATddxDhTvkcholGyk6CNavW3tGalj1pvOqehDHngN8Bnh0MxtSvktN8D5DZejRE8OjCNObV/u56O17GDon59h1wYUlUwF3LS8TseAEe8DYiJylMpkqaa2tUxETnVLn9jS5m4Sr2/gDHdk9S0cDqIwhUI9AHxYpSuRqbXdhFjHsroO0hGDIFOnrUWuG1JL6YInTjruqPfQZQ0SWI6K1La+uv2fFrrOHZHnWdADGYIkPeiDLJ2itW+5hobU3sHPZ6LfgZfHLBFtPF8+62zto6QW+c33S74ucPfzul7tr/dLMkg6fM6RJqT0lyaGOtHlt2iLl9JP4OZB8msvHwGjD1VQmPrICR4ENYSvw2NsUJR3YtxHkInU7r1OpKF39aE1/JKEKVBIRmalebyuvgYQZnh3bWW8UkZqflX172n3r7+7336hrR4wCG4gRauay3IDiFkk49zqMg0p3YhRWkghJMnNXu1/hnmmq/jc8joEjCZUdWaDDvmpXTl1+g6xmGBJsBOhz/t66gGLAohk7bSrapFk22n/BP4YQe0z7qoPLCyMJiyEtkcIoCzDgeipNTzExSFmxHHXEYhTvmCNyLjxj7THH6WH+6X2+I6RSzsTSICifVLIU2AYWQn+VwPaANujzyRlKFsn6BB1R6cKekHEVn0cxKfZMfk65hR0Puh1HmF7lk8fUwJ6dFzqJWysDHc7zP8nn69OPvzzjx99/8AAK568WtdYtZlq1dadmm9dm0o6HDzUDugYNb50FiJUD+ksHZDfC3Nc1QLqQ5ipvkZb6piAqr6NCuVPHTJg4kgx+S4EABPXAa8QmWfEEjJxUbMznXWa2mLSaT4/MP861s+CkjfzK7zNr5+L9Hc1+irY/XWV/3Udi8WMlMxM3umscdRelpdqXLizgqYJ51lN3DrDrFs71pfIlXKu4XyUuk1iGwEzh2YQHcg4dTw6Y4j0oRbA9LRvO1n//ceOvPuPHzfa+7X7oWCGbjqrGYo2EPAv2o19Q8eKOYTR0P6Df5U6uOIW5HN5J441B+v7HeqnAo70ijbtESaP4Qy5dvWhQlStpqAzPu0va+mPpfZDJSIc3F+Umj4JZUcKFo1DccOvGs7u2giS8YLmUeuIHtQkRauzcojjE722QxoiKOjUjvjs6BxBgb+QAL70OyW9ounDOJICpAVa6ZMMmJrV/tj7+Pvf3eeHM++ShgjanTtw79IR/jimOtYlyPO/1XpGO0+y1OuMCLE45ncI0JG9XschlBvwqOBgP52ItxveNq0+dqepFDVZK3TLFV9w0dRB+FY67s9q5++VTm5O1/Su/TNuoo+e6CPiKDqe9zbHfn6RG72XvecCTAo6GBQ4suu637+/nfvcTx91w0TpXOh5H+wq2hbv2p9ZOrB60DUyPZhbbQIdfSqL5FR28EgeOpxhRvRJx9vJ5bcWvAU828fwFqnET0Nj4nMIRp8VR1SLPm100Tvvk5Ws72Sx98WLoxf1yZ57TUdz36bJ1fYw1PeqChOJQ6iTNMC8bG7ev79FH0ndnyMxV+8KPz7h6wGfO/3Vfb4e7T7P/v1dCPT8GNDf7vSfx+Q+lfzvx+S+rce/HZP7TPHfj8n9FqN/Nyb3Cd6/H5P7fd78mzG5bwn1j8Y0s7ae5H6OGzraqs/f4TBll17/750q/3XxtJ8KTR+zptS6NsWHPmkVtTt7l47g6hyibe2Iw023YdXVb3sW9OoTHEKDmBlyedP9XED47/fXP6+iKExbaepG6ESj1b8QEN9v5d7Dfr5VtJUBv/kONNamAxlNJzlB1izHp2Pa2OwTELtwyYGYXR/9fcYdB9N46sIccOfd3f8DgK/AxVcJRhcAAAGEaUNDUElDQyBwcm9maWxlAAB4nH2RPUjDUBSFT1OlUioOdlBxyFCd7KIiHUsVi2ChtBVadTB56R80aUhSXBwF14KDP4tVBxdnXR1cBUHwB8RdcFJ0kRLvSwotYrzweB/n3XN47z5AaNWYavbFAVWzjEwyIeYLq2LgFT6MIogYIhIz9VR2MQfP+rqnbqq7KM/y7vuzBpWiyQCfSBxnumERbxDPbVo6533iMKtICvE58ZRBFyR+5Lrs8hvnssMCzwwbucw8cZhYLPew3MOsYqjEs8QRRdUoX8i7rHDe4qzWGqxzT/7CUFFbyXKd1jiSWEIKaYiQ0UAVNViI0q6RYiJD5wkP/5jjT5NLJlcVjBwLqEOF5PjB/+D3bM3SzLSbFEoA/S+2/TEBBHaBdtO2v49tu30C+J+BK63rr7eA2Cfpza4WOQKGtoGL664m7wGXO8DIky4ZkiP5aQmlEvB+Rt9UAIZvgeCaO7fOOU4fgBzNavkGODgEJsuUve7x7oHeuf3b05nfDwAIct/nVjU7AAAOVWlUWHRYTUw6Y29tLmFkb2JlLnhtcAAAAAAAPD94cGFja2V0IGJlZ2luPSLvu78iIGlkPSJXNU0wTXBDZWhpSHpyZVN6TlRjemtjOWQiPz4KPHg6eG1wbWV0YSB4bWxuczp4PSJhZG9iZTpuczptZXRhLyIgeDp4bXB0az0iWE1QIENvcmUgNC40LjAtRXhpdjIiPgogPHJkZjpSREYgeG1sbnM6cmRmPSJodHRwOi8vd3d3LnczLm9yZy8xOTk5LzAyLzIyLXJkZi1zeW50YXgtbnMjIj4KICA8cmRmOkRlc2NyaXB0aW9uIHJkZjphYm91dD0iIgogICAgeG1sbnM6eG1wTU09Imh0dHA6Ly9ucy5hZG9iZS5jb20veGFwLzEuMC9tbS8iCiAgICB4bWxuczpzdEV2dD0iaHR0cDovL25zLmFkb2JlLmNvbS94YXAvMS4wL3NUeXBlL1Jlc291cmNlRXZlbnQjIgogICAgeG1sbnM6ZGM9Imh0dHA6Ly9wdXJsLm9yZy9kYy9lbGVtZW50cy8xLjEvIgogICAgeG1sbnM6R0lNUD0iaHR0cDovL3d3dy5naW1wLm9yZy94bXAvIgogICAgeG1sbnM6dGlmZj0iaHR0cDovL25zLmFkb2JlLmNvbS90aWZmLzEuMC8iCiAgICB4bWxuczp4bXA9Imh0dHA6Ly9ucy5hZG9iZS5jb20veGFwLzEuMC8iCiAgIHhtcE1NOkRvY3VtZW50SUQ9ImdpbXA6ZG9jaWQ6Z2ltcDplYmE3NWZjOC1hNGZjLTRlMDAtOTk5Ni0yOWIxNTBmODk4YjQiCiAgIHhtcE1NOkluc3RhbmNlSUQ9InhtcC5paWQ6YmJmMDkzYTMtMzU1NS00ZTRkLWJjMmMtZTcxZjY4ZjlmMGZlIgogICB4bXBNTTpPcmlnaW5hbERvY3VtZW50SUQ9InhtcC5kaWQ6NjMxZGM5YWEtNTJkYy00ZWRkLThiYzItZWM4OTYzMmQ2NzY4IgogICBkYzpGb3JtYXQ9ImltYWdlL3BuZyIKICAgR0lNUDpBUEk9IjIuMCIKICAgR0lNUDpQbGF0Zm9ybT0iV2luZG93cyIKICAgR0lNUDpUaW1lU3RhbXA9IjE3Mzc4MDI2NTMzNzgzOTQiCiAgIEdJTVA6VmVyc2lvbj0iMi4xMC4zOCIKICAgdGlmZjpPcmllbnRhdGlvbj0iMSIKICAgeG1wOkNyZWF0b3JUb29sPSJHSU1QIDIuMTAiCiAgIHhtcDpNZXRhZGF0YURhdGU9IjIwMjU6MDE6MjVUMTE6NTc6MzArMDE6MDAiCiAgIHhtcDpNb2RpZnlEYXRlPSIyMDI1OjAxOjI1VDExOjU3OjMwKzAxOjAwIj4KICAgPHhtcE1NOkhpc3Rvcnk+CiAgICA8cmRmOlNlcT4KICAgICA8cmRmOmxpCiAgICAgIHN0RXZ0OmFjdGlvbj0ic2F2ZWQiCiAgICAgIHN0RXZ0OmNoYW5nZWQ9Ii8iCiAgICAgIHN0RXZ0Omluc3RhbmNlSUQ9InhtcC5paWQ6ODRjZjEyOTYtZmFmNi00OWFhLWI1ZTYtMDhlMDdmZTg0NWI1IgogICAgICBzdEV2dDpzb2Z0d2FyZUFnZW50PSJHaW1wIDIuMTAgKFdpbmRvd3MpIgogICAgICBzdEV2dDp3aGVuPSIyMDIwLTEyLTE5VDEzOjE2OjI0Ii8+CiAgICAgPHJkZjpsaQogICAgICBzdEV2dDphY3Rpb249InNhdmVkIgogICAgICBzdEV2dDpjaGFuZ2VkPSIvIgogICAgICBzdEV2dDppbnN0YW5jZUlEPSJ4bXAuaWlkOjA1NGRjNDVjLTMxZmMtNDhmNi1hMmE3LTVmNjU3MmI0ZjE3ZCIKICAgICAgc3RFdnQ6c29mdHdhcmVBZ2VudD0iR2ltcCAyLjEwIChXaW5kb3dzKSIKICAgICAgc3RFdnQ6d2hlbj0iMjAyNS0wMS0yNVQxMTo1NzozMyIvPgogICAgPC9yZGY6U2VxPgogICA8L3htcE1NOkhpc3Rvcnk+CiAgPC9yZGY6RGVzY3JpcHRpb24+CiA8L3JkZjpSREY+CjwveDp4bXBtZXRhPgogICAgICAgICAgICAgICAgICAgICAgICAgICAgICAgICAgICAgICAgICAgICAgICAgICAgICAgICAgICAgICAgICAgICAgICAgICAgICAgICAgICAgICAgICAgICAgICAgICAgCiAgICAgICAgICAgICAgICAgICAgICAgICAgICAgICAgICAgICAgICAgICAgICAgICAgICAgICAgICAgICAgICAgICAgICAgICAgICAgICAgICAgICAgICAgICAgICAgICAgICAKICAgICAgICAgICAgICAgICAgICAgICAgICAgICAgICAgICAgICAgICAgICAgICAgICAgICAgICAgICAgICAgICAgICAgICAgICAgICAgICAgICAgICAgICAgICAgICAgICAgIAogICAgICAgICAgICAgICAgICAgICAgICAgICAgICAgICAgICAgICAgICAgICAgICAgICAgICAgICAgICAgICAgICAgICAgICAgICAgICAgICAgICAgICAgICAgICAgICAgICAgCiAgICAgICAgICAgICAgICAgICAgICAgICAgICAgICAgICAgICAgICAgICAgICAgICAgICAgICAgICAgICAgICAgICAgICAgICAgICAgICAgICAgICAgICAgICAgICAgICAgICAKICAgICAgICAgICAgICAgICAgICAgICAgICAgICAgICAgICAgICAgICAgICAgICAgICAgICAgICAgICAgICAgICAgICAgICAgICAgICAgICAgICAgICAgICAgICAgICAgICAgIAogICAgICAgICAgICAgICAgICAgICAgICAgICAgICAgICAgICAgICAgICAgICAgICAgICAgICAgICAgICAgICAgICAgICAgICAgICAgICAgICAgICAgICAgICAgICAgICAgICAgCiAgICAgICAgICAgICAgICAgICAgICAgICAgICAgICAgICAgICAgICAgICAgICAgICAgICAgICAgICAgICAgICAgICAgICAgICAgICAgICAgICAgICAgICAgICAgICAgICAgICAKICAgICAgICAgICAgICAgICAgICAgICAgICAgICAgICAgICAgICAgICAgICAgICAgICAgICAgICAgICAgICAgICAgICAgICAgICAgICAgICAgICAgICAgICAgICAgICAgICAgIAogICAgICAgICAgICAgICAgICAgICAgICAgICAgICAgICAgICAgICAgICAgICAgICAgICAgICAgICAgICAgICAgICAgICAgICAgICAgICAgICAgICAgICAgICAgICAgICAgICAgCiAgICAgICAgICAgICAgICAgICAgICAgICAgICAgICAgICAgICAgICAgICAgICAgICAgICAgICAgICAgICAgICAgICAgICAgICAgICAgICAgICAgICAgICAgICAgICAgICAgICAKICAgICAgICAgICAgICAgICAgICAgICAgICAgICAgICAgICAgICAgICAgICAgICAgICAgICAgICAgICAgICAgICAgICAgICAgICAgICAgICAgICAgICAgICAgICAgICAgICAgIAogICAgICAgICAgICAgICAgICAgICAgICAgICAgICAgICAgICAgICAgICAgICAgICAgICAgICAgICAgICAgICAgICAgICAgICAgICAgICAgICAgICAgICAgICAgICAgICAgICAgCiAgICAgICAgICAgICAgICAgICAgICAgICAgICAgICAgICAgICAgICAgICAgICAgICAgICAgICAgICAgICAgICAgICAgICAgICAgICAgICAgICAgICAgICAgICAgICAgICAgICAKICAgICAgICAgICAgICAgICAgICAgICAgICAgICAgICAgICAgICAgICAgICAgICAgICAgICAgICAgICAgICAgICAgICAgICAgICAgICAgICAgICAgICAgICAgICAgICAgICAgIAogICAgICAgICAgICAgICAgICAgICAgICAgICAgICAgICAgICAgICAgICAgICAgICAgICAgICAgICAgICAgICAgICAgICAgICAgICAgICAgICAgICAgICAgICAgICAgICAgICAgCiAgICAgICAgICAgICAgICAgICAgICAgICAgICAgICAgICAgICAgICAgICAgICAgICAgICAgICAgICAgICAgICAgICAgICAgICAgICAgICAgICAgICAgICAgICAgICAgICAgICAKICAgICAgICAgICAgICAgICAgICAgICAgICAgICAgICAgICAgICAgICAgICAgICAgICAgICAgICAgICAgICAgICAgICAgICAgICAgICAgICAgICAgICAgICAgICAgICAgICAgIAogICAgICAgICAgICAgICAgICAgICAgICAgICAgICAgICAgICAgICAgICAgICAgICAgICAgICAgICAgICAgICAgICAgICAgICAgICAgICAgICAgICAgICAgICAgICAgICAgICAgCiAgICAgICAgICAgICAgICAgICAgICAgICAgICAgICAgICAgICAgICAgICAgICAgICAgICAgICAgICAgICAgICAgICAgICAgICAgICAgICAgICAgICAgICAgICAgICAgICAgICAKICAgICAgICAgICAgICAgICAgICAgICAgICAgCjw/eHBhY2tldCBlbmQ9InciPz5ALWaMAAAABmJLR0QAAAAAAAD5Q7t/AAAACXBIWXMAABJ0AAASdAHeZh94AAAAB3RJTUUH6QEZCjkhopTJfQAAIABJREFUeNrtfXtYVNX6/2cLMwyIzCCkg2mgQRJKomniKdSOqJT3RMuUk6YllqklHC/oQTOjfmBKUvhFSzqamXfxEigdFTRBTVEUEUguKmCC3EYYZsD1+4NmYpi9Z4ZhNg6wPs8zzwNr77322nu/n/W+71rvehdAQUFBQUFBQdHhwNBXQPGkkZQXT5wkqQCAovKhGO7iR+WSouMIf6nSSeOXlBdPWuv+negnoHiS6NU10aAySgCKVsHRzEukWD5Bo0c+lZvIW49sLcwwqIz6ABStgqKaqURo+ZtWec79zRja09/k8lKi8CIMc1+jjJDucBSmtehecTcvF4osq53kdTZFE58f1IMSgMIglCqdOHv7B5WfwN0h2KQyU6J0JwwqNAkAMRwFmc2+z8Eb6e969frvd3bWOzXK7zxcD6/u7zKUABQtIgAA1Cj8cDHvk7lT+nl+bxoCPE8YlDchgASOgpvNks3TuYnEs2cA53EHQRFDfQAKvZDJp+ux2eMx/Lkx36Xe3WcSv+Ax6WpQma5e/171TJ3CT51gCoORfi8Aj4mL3vNcu3+EtPvft5gEZY/GG1TGhUHPbPtOJPif0fenBKDQwHj3wczZ7Ji5NYrX9J7bq2sISpVOpCXaIKNw/NxqxQT1/9WKCcgoHD/XkGsPZVyNthXt0Xve5Xzuc6gPQMGJkznJZJDzdIPOVdQNQ1ZxIEb0HtNqMpWQfY4MdvHn9i+qlqBv12UM1QAURmG0qw+jq/dsDKHlefTv+Y5JzCJDoagXcR7Lub9Zr/BTDUBhuG/w5xbSw36tQedyjbg0xancRNLVJg9dRLchEuZAYJGDTkwRHhMnKOtdIVe4okreBw+rXfBqb1/WOnPK1xD7zv+n4cRfLphn8CgVJQBFs5CUF0/6PT3HaAKczk0kT9ufQ9fOW5p974ePAnGv7GWMbEKGI5m/E6GFHDVK2y2TPQYsaE6dlAAUzYYxY+5n8hKIi+MR2Frtb/H9ZbVTkVcyASNcxrZYfqkPQNFsjOzty+kbNC0/eOPaqpulG0j/p2ebRPgBwNZqP/o/PRs3SzeQgzeurWpJXVQDUPCGxD/OkL7df4KN1WHe7lFdOwm37s+A77MjDJLlnIrVxN5mm1pTUQJQ8IJTuYmkrzQGVpbJvN+rts4Ht4rf53SUE/9IIq7dDqKLaLeWqWZJPxWFqXEi5yzpK/26VYQfAKwsk9FX2nDfMa6vaJAg5c4B4iZ9k/NaSgAKk6Ov9OdWE35NEnTXKneTfkidYIrWQ/qfW4it1b4ncm9bq31I/3NLsybiKAEoTIb4rPMGT5bxhR72axGfdV5NArlylM7zqQlEwSnMjra5sBaWAgBqFA4okfWG33PDOAdOXBzPmkXbG7fjSsESDHapgMDiksY5DcO1PnQYlKIBN0s3kG52EXrP07W6St9imtaEoeEY1ASiwO9FOw0SfqAhBJoNZwuOEnN6JkPbQwlAAQfb31teR+db5vVMBraHEoACNYpeLa7DVnTTrJ7J0PZQAlAgr/RlECI16FyuGCCR4IZZPZOh7aFOMIUaiTlJxM76PgQWj6Cst8HDR710jvqYqwPcHEeYEsCM8OabbxJfX1+89957be67PFAMI52YPLNpz2PigqeE5xkA+OVWKnHskguRZTkU9V1QIuuNsW7/YCgBzAjBwcEkPDwcABAQEIAdO3a0qW9z59E8YiM8ZjbtqVaMQ6/O25iGWKAPOTUE9QF4RkxMDAkJCSEBAQFk4MCBxNbWlgwcOJBMnjxZbTLs2rWLfP311+prduzYgX79+pFdu3ZpmBUhISFEKpWSffv2mZ25IZM/b5bt0RcLRDVACxEXF0dSU1ORmpoKmUyGlJQUJiwsjKSmpiItLQ0uLi44ffq05ktnGBBCEBoaiuXLl2PYsGFIS0vTqtvKygpLlizBl19+yYSEhJD169cDAJycnLB582b4+/ubzfc7W3CUPO/0ntl8l5tFW/HKM+MZXb4JXQ9gBBISEkhiYiKEQiEOHTqEGzc0RxuEQiEUCoX6/0mTJuHwYfYFISKRCEuXLoVKsFl7KIZB//79kZ6erlFujiQwx5nge9WziEjwKzWBTIXk5GSEh4dj/fr1yMjQTuOtUCjANOpXysvLOeuSy+XYv38/Nm/eDKFQqBb4xiCEaAk/ABQVFWHx4sUwJ3PoQdUnZteOKwVLoKwfzHkuJUAzcfnyZQ3hZEPj8itXruisLzMzExkZGXjqqac0rmUMUM737t3D0qVLWY+tXbtWo3Fr1qwxKVHibl4uPJF9lsTdvFyoKssrecUsvlHjdox3H8xIRUcYB0ER4yAoYi7mHkDugw24VxZKfQB9cHNzIx4eHggICFCbGj169CCFhYXNqkcoFEKpVHISpqVwdnZGYmIiLCwskJKSgtDQUGRnZyMkJATDhw9HeHg4EhMT8frrr+P48eMt+uY3S78i3ezCNUeAGgXINSd/EB8oLAuFZ7dAg5+REoADYWFhZMWKFer/hw0bhokTJ6Jxmd6X+5ezK5VKUVxc3OI2qerjIsHChQuxevVqyOVyAIBAIIBEIsGDBw8ajyRh/fr1zfruSXnxpE+33bAWJOi1uQEgX/bRE1kUI6v1h7Pt5mY9GyUAGoYhi4qKsHTpUvX7GDp0KElNTTVJ/RKJRKcv0FxhbwlsbW0RGxtrsPNsSCKspgQ4kXOW9H/661ZdFllb54Pr9xah6ZpgSgAD4OHhQTIyMjBu3DgsWrQIRUVFmD17ttZ5dnZ2qKys1BJUXf5AU0FuqWCbghj9+vXDjRs3DPr22eVriSFZ3JqGHZhTVghd6PBOcHBwMFGN5hw7dgxTp07Ft99+y3pudXW1Vlnv3r11CmTTY/qE19JS9yI9U2iFGzduICAgwGTqhS1A7tXevkxG4Yeorp3E6/errp2EjMIPjRL+Dk+AuLg4EhkZqWlHymS4cOECq+lQV1enVf7aa69paQNDYWdnp1VWV1eHPn36QCQS6b1eIBAY/ew7duxAVFSUXhIUlQ/lPFaj8ENS1om5o119WB/c99kRzKX8D1b/WRnEy/f7szIIl/I/WG1oUiyKJhg+fDgBYNDvpZdeYi1XXj9JxGKxRhnDMFp/Ny5T/YYMGaJVpjpv5cqVxMvLS2+7XFxcDH6Gpj8HBwcSFxenlwRJefEktzKIFMknkfu1Y8ntymXkTO6JZmmQM3kJJF+2UGtTbGN++bKF5ExeAqES3AL8NU7OKYBNfx4eHlplUqmUKK+fJLNnzzZKAKVSKVm+fDnrMZFIRNLS0jiPN/65u7tzPgfX86h+3t7erSpIp3MTSXb5WqMEP7t8LTnNsWdxQvZvJOXuAXL+zkESn5VCyaELJ06cIA4ODgYL6rhx41jLZ8+eTZTXT5Kffvqp2cKvEkxCCGdP7+XlRZTXT5KSkhLOnt7b25sor58kfn5+RmuCRYsWmVxgfslKJTdLvyJ5VR+T34t2stZ/KjeRXL2/jdyuWEkKa6aTB4pBpFTpRB4oBpHCmunkdsVKcvX+Nr0bdeeUr9EiS1bZZxqTdBSN8Prrr7MKgrW1NWv5J598wlq+fft2orx+kiivnyQikchgbdL42IULF4jy+kliZWWldY1EIlHXz6ZprK2tNY43JoFYLDbYPBIKhSQmJsakJChRDNQQyJulG5pV/y+3UknK3QMk9e4+ciL7HOe1RzJ/16k17lXPJAdvpL9LneC/EBUVRY4fP87u1NXUaJV5eXnh4cOHrOfPGtJT/be3t7f6b3d3d3h7e6tHbKRSKSZOnKhx7YgRIxAYGIiBNg2bRK9Zs0ZjlMfPzw8Pzu7VuGZr0ExcuHABEokEAPD5559rCkPEUvj5+UEikaDk3D5kH90KkUik1zlXKBQ6A/Kai8ScJMIwmhN/hmadABryeb7UZzLcun8I1+4f4UUXf6Q/iGYlgdBCrrMukeB/eNl18XdcJOhw3rOzszPJz8/XKvfw8GANbtu4cSMiIyORl5enRYyLO/8OCTiaLUNxcTHm+biqyz7bexarpv0dl7IvvQT+no6cbRu9cD1SUlKwceNGjXrYsHrnr1g3a5R+wp+8jo8//thQzdjiUAkAuHBvL3m22yKtckNz9XBFlbJdfyjjarSPm19gc4ZsG49adSgCBAQEkB07dmhNJnXr1g0VFRWora3VOF8sFuOPP/6Ao6O20C5ZsgTh88a1ieeetuobHDp0yKBzFy9ejMjIyBbJBdfkWUsJwBXno2vVlz4imdwEOn4pjxy/lGd2XnhsbCzZvXu3hpmhwqhRo7SEHwDmzJkDcfEVlJSUYPny5fDy8lIfW7VqVZsh/t7PPoRUaljWh8jISPzlaxgN+84tiwPiCl/mCrLz7vUG4yAoYu48bL4ZZ1INELEpmpRWVqOHnRUIGCjRCU899yL+9fpLT1zTuLm5kezsbK1yPz8/ZGZmapk4AKC8fpK1rp0X72rY/20BFdKBrJqM1W4WiSCXy43+Zs0xYdiga3VZUtYJnTtAHryR/u7w58Z81+oaICg0nBSXydDDzuovZhEUlclwLfUMjlzMv/gkP/6iRYtYhV8kEmHKlCmswj958mTO+tqa8AOAuPgKQkNDNXs/DudYLpdjw4YNRmkBrqHHx+QZg+t45ZnxnER52XXhd7pGdab08/xe197GTbWESbJDr98YQwR1Nfj4NQ+tYyv2puHM0T2Dja37wMU7Y98Y0ivB2Ov37dtH3n77bdZjK1euxMGDBzmPARXtygdaNe0VJCR4IyUlBQAwduxYCAQCHDlyROtcrmWcerWHZbUTW/nDR5MBGB5d+6h2Ejqz7C1m0SkL3n3+8x0ATi3Q2MmNzzpPJDYNnCyv7qGV58gkGsCWUeJPmYL12PvD+wAAvjlu+KRExpVrJCg0nASFhpPfju6ODwoNN7g3ioqKIk5OTiQ4OJgkJCSQiIgIjTW6jXu9HTt2ID4+XqsOLy8v9fBke0PytnWQSqWIjo7GkYilOBC2SCvuiGEYJCUlGbXcUl5nU8T6TQvHz21OPbkP3uA8JrRMMbgev+eGMd49pzLePacybEm+TGYCOdtbs5b37m4HZ3tr5Kb+6mRIPVcSj5HvDyXA2d4a7w/voybQFxv/z6CPsWfPHhQVFSE8PBzjx4+HpaUlevTooT7e2AHu1In98d955512PRp2J3GHxjDrunXrNI6r3tHevXubXffE5wf1aGpmXM7fA0N3bldhRO8xreI3msQEImDQMKnIjackXfTWk5BwhvyYfAFh07y0yPUYdfrtz7g40njCSalU4uzZs+jcuTPr+WzzARKJBAtH90dHwpLXvLB6tUi9kkztUHKYh/qgvX+Aj1H1XM7fg0HO03l9dpNoACXRXU2gb188KK/Cyq+262TJyd8ucF5/p6waG45djdZ1/Y8//shuTz56xFq+bds2bNy4ES4uLuoytoUwHQGBgdpzSQqFAnzECRmK0a4+TO6DCPMnwIOqaoNMJKWsjPO4Srib9v7NQWJiYrPOf9OrOxaO7o/so1vx008/YeTIkW1mcsvU4HpuNmc4Nja21UgxuMdMhs2kMisCELUZxI2xnk4g9fWcx0tvXQ7saW9jdBuCg4NJaWmp4aMVTRw/f09HnIwKQUfGpEmTtAYLKioqMH36dOLr60ucnZ0JAGLKuCFDTSpVWhMHQRHDtQDnifkA4f/5hNE3UtO7u50BbDS+YzHUXlWFQbi7u5vkBe68eBc//PCD2nlkGAZjx45F0ITBJhWCeeE7NXwWqVSKqKgoiIuvmOwes2fPVvf4Q4cOxeLFi3HixAls375d4zy2OZW2CpPtEtnJwgJbEm8h0LevzvM2HLsavXTcgAVNy+tkZSgykgBRUVFk4cKFhmmrv0Y4WkqACulADB48GCNHjsSnn34KGxsb9Zrh48ePo5dvAJYtW9Zih3pe+E6kpqZi2bJlePbZZ9Xl9+7dg7+/P+RyOZK3rTPJNxzvZovly5cjKChITayysiFaBFCZQbNnz2YoAVQV2dojv6xE73lFF04EAtAigJOdCJZ4bNS99+zZo7fHb4oBAwYY/axRJ6/j8OH1OH/+PGuMjY+PD0JDQ7FixQq8F3EVW4NmGnUfn3mrMX/+fMTGxrIef+utt5CcnIwhsxZpRKa2BOtmjQIaaZX3hrvhA5bz2osWMNk8wOefzGEYC0tEJ97S6QizDUkeuHhn7L2yR3q1Bxvi4uJIUlKSltA37fGbwlgNcDRbhjNnzuDUqVNq4We7h0gkwsaNGzFgwAAEb2t+3vwhs4IRHR2td1TKx8cHp06dgqf/R60qODk5OZQATSGwlaCgrEanI8w2JFn04MF2Q+pnM53Yhj4NSR0y3s3WqGdcvny5lkmgIlxmZiY2bdqENWvWID4+HrW1tViyZAlu3ryJK9XiZpk9ixcv1og+jY+Px5o1a7Bp0yatVOoSiQQxMTEYvZAf59TT01OrLCsri/oAbFpg1ZfRhMsX4HKEizLTdM4Sb/wlg/NYc4c+2UaADB5p2nYMgYGB6hVZKqSlpWH06NFQKBSora1FbW0tJBIJZDIZFixYgJCQEPz73/82eJTpzJkziI5umPIICwvDypUr1dnlrKysIBKJ8PjxYxw7dgw+Pj5qTdDc7HOGwsPDQytDNTWBOCCvliFfhxYAgJ2/pGp00fKKUoz35I5XL6upg1CsHcrbdOjT0Lw8xpo/u3fvxowZMzTKkpOTMWbMGJSUlKCyslK9rqC8vBx1dXXYunUrIiIikJmZabB/MXnyZFhbW2Pu3Ln44osv1PUBQG1tLSoqKlBVVYU33ngDcXFx6mvnz5+Pj6L2m1xIGmsiFWQyGcxxp5onToCItcGMakSI035M196Y+WV3bgIo6x/Doe8grSVGTVc5NTV9uAhhLAHkcjm6d++u/r+4uBjTp0/XSD7Lds2pU6fQpUsXVEgH6r1Hfn4+nJ2dsXXrVuzfv18rFWNjlJSUYM6cOWpy9evXz2CiNQejRrEvvWwPZhAvi+IbRoRqkHu/ktURlsv/1hArv9pOuuuIE1qxNw12Ynst+z8qKoo1xt/KykqvL2DsCFBT0yc+Ph4ymUzvdVVVVSgoKDBorqK8vBxisRjffvstKip0R6QyDIPKykrs3LkTANCzZ0/WtQ0tBVdkbEFBASUAly8AADFJt1H+SHup4dN2fwupoqoMpVWPOOvqZiuEHBZa5VxDn2xLG02lAZra2Hv37jWIAABQX19v0LkSiQTFxcUG2diEENTV1eHYsYZRprt372rENZkSYrEYDMNoaFW2JAKUAI1MIZdnnFlHgvLLapD0e3ZD9/y4HoNc2VcL5d6vxJ8yhZpQKrANfQLgXPL31ltvYcmSJRg5ciTEYrHRI0AikUgjzz9bDlFdBFBtg6QLffv2RUpKSrPyfqpGhc6dO6eRnsXUfgAhREOrskXTUgI0wsK50xmhjR22JN5S+wSqkSBXy4ZcOxbWtsi8w755REzSbfRiiQ/iivpkG64DgB2r5iJ83jicjApByTnjF2z/lTGB9X76HHBLS0u8+eabeu8xz8cVKSkpGjmK9NXdu3dvAMDPP/9sUKoUo8yggQNZ/ZWEhLado5P3xFjfJGZq2PMr9jb0Vo4WDeZAfY0MdlbaJo6KMB6vvKZ1jG3oUygUatnopkbQhMGIj49Xa4GJEyeqe3Vdcw8q08HQuJ13331XY8JQ37yGn58fdu/ebbL4Ji7NxOW0UwJw4MSlXFJVVQWgIaY/bJqXeoXXyr2XcePXw+TtSeMQOEr7wxVW1sLZ3hqjB/fR6P7Wrl3LGvU5ZcoUHDx4kNm3bx8OHjyIsLAwzJ8/H2+99ZZJnykxMREzZsyAXC7H5MmTIRaL9fbSlpaWmD9/vsH3WDdrFBwdHWFjY6O3bkdHR4wZMwZffvkldqyay9u35ErU1dbnA3gLZrpxJZ0IHmYhJuk2a4z/lsRbKKysRQ87KwT6uqPxirItibeQX1aDBVN88azXQK027tq1i+zZswfHjx9Xr/eNjY2FKjhLef0kr2p5X3oJIiMjsWXLFmRlZeGDDz5ASQl7HJSFhQVeeuklJG39tNn3cfjHVFRXV7PuSwAA9vb2mDJlCjIyMkwWEKcLgv6jATTsUezs7AwPDw8MHz4cbTkojpeG37xyjbgK7iP3fiVikm7D2d6adWZYJegAMN5Tqp4L+M+Ba+hhZ4WPlizU2T7VptUFBQX4+eef1efyTQAVhswKhkQigZOTEw4dOgSGYdQRoQzDQCQSYfjw4Ti6wfgNIl58eynS09NhaWkJpVIJALCxsYFCoYBEIoGvry+vPb/GyNvVPzFz5sx2lU3Q5A+zL/43knL+HADgg1ddcSztHgorazHnZRfOUAgVEQQWnf7SCH1xQ9EDXoP6GdW+1iIA0BAWvXnzZpw/fx6FhYUQCARQKBRYuHCh3vyezcG/1n+P5ORk1NXVwdXVFaNGjdLIO9paEPQfTQmg01H8a2HMB6+6wsneBpYWndSOr77ljioivOT9Cqa/NszotrUmAToS7jsORE+pY7sigEmd4Jy0K0Ql6L0cbWFp0VC9yvFVEYELKjMpI/0ylTYzRHsTfpMS4Lffs8iWg+yRmarcQN1shVixN401REKFsGlekD2qxv87mEp7cYq2QwBPYTG62Qp19u6q1IkxSbd1BsvNGvoMXDrJ2vWLH/qvZXAe8w6VwPZAgFO//0FETC2sBRbqXp5LwFV+QI2yntMkSs56gOLczHb70j+I3INr166hsLAQz014n0phWydA906P1A6s/5BnNASczdwJm+YFa0HD7C/b8UDfvigoq0ZzcoK2JVy8eFE9tp+bm0ulsK0T4CmLRyisrEX3LkI42dsgbJqXXnNH3/pfZ3trdLU1buWWuQ/Vubr+PTzq4OBApbCtE+DL/WehrH+MJX4e6pEfVU/vbG+NwspavSNATTHW0wkPZfJ2+dJ/WjMfTk5OsLOzw61bt6gUtmUC7Lt4t6uu44G+fTHnZRcAYDWJuCbHVOX/PX7BrMygLoMnYNqqb1pcT8HJ/6L0t/0mTWzFJ9rbBJjJCOA/pOfDnvadNZxfNiFXzQXEJN1Wn8eVUt1c4Tb+Pcjlchw6dAhDZgU/0bbsSy8BhZmYQI/BqG3+GmW9WsgbE0HVozeOCNUHZ3tr/JGZbhY91nsRP2osN0xLS3tiJJgQtAEzZsyAoP9oTAjaQMnQApgkLcr9yhqs2JumEeqwYm8aYpJuqwW5sLJWgwyBBuQKrUMnKM1kL++tQTORmZmp3l5IRQKfeatbJRJThV6+ARqr0uLj4yGXy+HfwRP7PlENILIVa02ChU3z0hjz72FnZXDPr4KCWJjVy0retg5+fn4aZSkpKZgQtKFV7j9kVrBa+FVrBEQiEe9Zrdur/Q+YMBju603fkKJKOT594wWT1BedmIWCsmpErA1uURv5CIybELRBa28xvjfOZtvmdOTIka2S0r09E8Bk9kVBWTXsrU2XaO5uZS1rMixzwJGIpVrJojZt2sSrLe7v76/xv5+fX6sI/33HgWjPMBkBItYGM0Ne8NQb7GYI/vurJx7X16Nzr8Fm++Iu7gzXSkGyYMECXu4V8Nl3OH36tBYJWwPtMQKUFwIAwKtj/6nOB2QMCbLudseKHUOxKskBP15fgqjd7gj5uaJFJgyf6vvSpUsaeUbLy8tNOjJUIR0IT/+PsHv3bo11wbo28aZ4Qj5AY3z61TZSWVHGuQDm1yuuuHRbDCdJw3rem4U2+DGHe05gQYBsy38m2xvdvfK5QCbq5HV8/PHHGmUSiQQ5OTlGT3IdzZbh8OHDrPsCuLi4IPvo1lYRjvZs+/NKAACYsrqGpGRYIujFCkg6NwR+HUkXI7Ws+X7CQNd6HP9SZHbOsC6nGGhIpd6cPD0RRy4hMjJSY5izMby8vEy2EQYlAI8E+DBaRg4kWplWyEYoELOos9kuk5y26hutZL2N4e3tDZFIBG9vbwwYMAD+no6okA5EcnIyUlNTERsbyyn4QMM2ppsXTqXCb+4E+Pxomefm7bbXeCHWbJnfqgn2CeZKgs/2nsXatWub9wE4tnBqbPLs2bOHM0EtJYAZOcEAUFpicY2vxubfFsa35Hq+h/RWTXsFJSUlrAlquZJbsQm/VCpFYGAgSkpKkH10KxX+tqQBZn1RTX69KOClsVIxwZXvhWbrCzSGavvUpsOXuiCRSBAaGtrinSWp8D9BAvxjgYLk/snfO2ypGdSaJGiKK9VidSrzpnB3d4e/55Of+KMEaCGcpip5Fa4x3kr8EGzT4nbT3EFU+HnxAfhGTq4llVQq/B2XALfvM/SDU+E3XwK4OT2mH54Kf8clgPQp/gmwcncFoQJAn90sCeDSR8l7oy0tCRUE+szmSYAudvWr+W70I1knKhD0Wc2TAKsn2X8mFvHbaCsrQgWDPqN5EgAAbET8DrEX5Al4FZD2KiRU+FuJAJ15JkB2K8wFtDdhocLfigQQCPhtdEEpQ4WGajTzJUB9Pf8NX723nFABor1+S8GLLWFny79s3i8WPBFhqpLJiSgvmQo+JQA3hEL+CXD7duvFBJWVlRGlUokBC+wxYTGDt//5T7zgDjzrwkBS9OsT/4jlTqNwOx+4epNg1/8InKYqycVvKtp9RgdTgJcXtPzHCvLDARteG96tC8HVWCHDt+DPX2uL5Dvc50x4nsE/XmDg5gL0dGLghGwwFQW8tYmIn0ER3HC3iCA7D/jtGsGRm7o7nKL9AkqE1iTAuriyd7/9wfY7vhvP14etqqoiz802fjJjwvMM+vUGekoZPNUVkIgZdLEFbKwBkYiBdXkWK0mI+BnUSJ6DXE5QXQNUyYDyCoIHD4G7xQQ3cqFX2CkRzIAAAP/rAkz9Qe8Wl5BTZ+3w75/av4xQ86gVCDBxpZxcvMVvctuZE2sQ8Y4d0xbIao6gGoHH9QBxn4t4f7lVlRYtFvyOKvz0+RvA61BKJwZ4zOPrzcz8w77/AAAClElEQVSyNPrDU+Wv/T46okbgdUWYVMyvnN0t6USFv435bR2KAPZ2/L7PagWw7nDZKqruqVlklgRwca7j/QHyc4XrDPmoVLSpNmh1H0As4T8o6NwlIRV86huYpwbo6lDvx/cDlNcA73/9iFDhp9rAGPDO7OdnKUl5Df8P0riXosLP/zumGsBQP6BHfas8yKwvqgkVfqoJzI4AvV3qWuVBUq8IqPBTEpgfAewkraMBZHVUOCkJzNAHoGZJ+0V7CKrrRD8jhbEY8qEYd4tLCCWAHvxzsJJKCyVBxyXAs24KKintnATUB9CD15fJyZUcCyot7RhtcZ6gVRtMnWFKgg7tBL/+CjWF2jvaWifX6mx9ca6CFJbT5ahUE3RADQAAI16updJB0XE1AAC8uqiWZN6jUxBUC3RADQAAw0fUFHWiVhD1BzqqBgD43VGegmoCsycAAIz4qJZkFVJTiJKgg5lAKowdW/0CFQ2KDqsBACDk5wry/R4b+iWoFuh4GgAA1r8pZhb8S7Z68HP1VEIoOp4GaIwPo2XkQKIV/SpUC3RMAtBYIUqCDmcCUVBQDUB7f6oFqAagoOigGoD2/lQLUA1AQdERNQDt/akWoBqAgqIjagDa+1M8aS1ANQAF1QC096foqFqAagCKDg1KAApqAlHzh6KjmkFUA1BQE4iCgppA1Pyh6IBmENUAFNQEoqCgJhA1fyg6oBlENQAFNYEoKCgBeEZb302QgvoA1P6naHd+ADWBKKgJREFBCUBBQQlA7X8K80BrDZpQDUBhlmit3ecpASioCURBQQlAQUEJQEFBCdAmvXkKCmPA+3QzHQKlaAn4DomgJhAFNYEoKCgBKCgoASgoKAEoKCgBKCgoASgoKCgo2i/+PwY60KjZitgvAAAAAElFTkSuQmCC;" parent="1" vertex="1">
          <mxGeometry x="140" y="-69" width="80" height="80" as="geometry" />
        </mxCell>
        <mxCell id="DbXJr1ej7qWTYFMR9nGL-1" value="Die Raute ist das Symbol für eine &lt;br&gt;Ja-Nein-Verzweigung.&lt;br&gt;Es müssen deswegen von jeder Raute&lt;br&gt;aus 2 Pfade ausgehen. Die Ja/Nein&lt;br&gt;Beschriftung darf nicht fehlen!" style="text;html=1;align=center;verticalAlign=middle;whiteSpace=wrap;rounded=0;fontSize=16;fillColor=#f0a30a;fontColor=#000000;strokeColor=#BD7000;" parent="1" vertex="1">
          <mxGeometry x="-168" y="198" width="333" height="112" as="geometry" />
        </mxCell>
        <mxCell id="DbXJr1ej7qWTYFMR9nGL-2" value="" style="shape=flexArrow;endArrow=classic;html=1;rounded=0;fontSize=12;startSize=8;endSize=8;curved=1;fillColor=#f0a30a;strokeColor=#BD7000;" parent="1" edge="1">
          <mxGeometry width="50" height="50" relative="1" as="geometry">
            <mxPoint x="-178" y="237" as="sourcePoint" />
            <mxPoint x="-379" y="150" as="targetPoint" />
          </mxGeometry>
        </mxCell>
      </root>
    </mxGraphModel>
  </diagram>
</mxfile>
